# xmcd CD database file
#
# Track frame offsets:
#	150
#	36940
#	83160
#	101475
#	140920
#	162407
#	187725
#	211207
#	230230
#	264345
#	295565
#
# Disc length: 4304 seconds
#
# Revision: 0
# Processed by: cddbd v1.5.1PL0 Copyright (c) Steve Scherf et al.
# Submitted via: CDex 1.51
#
DISCID=9810ce0b
DTITLE=Maurice Ravel - Ravel Oeuvres Completes Pour Piano (Disc1)
DYEAR=1900
DGENRE=Classical
TTITLE0=Piano Concerto - I. Allegramente
TTITLE1=Piano Concerto - II. Adagio Assai
TTITLE2=Piano Concerto - III. Presto
TTITLE3=Piano Concerto For Left Hand - I. Lento
TTITLE4=Piano Concerto For Left Hand - II. Allegro
TTITLE5=Piano Concerto For Left Hand - III. Lento
TTITLE6=Mirois - Noctuelles
TTITLE7=Mirois - Oiseaux Tristes
TTITLE8=Mirois - Une Barque Sur I'Ocean
TTITLE9=Mirois - Alborada Del Gracioso
TTITLE10=Mirois - La Vallee Des Cloches
EXTD=
EXTT0=
EXTT1=
EXTT2=
EXTT3=
EXTT4=
EXTT5=
EXTT6=
EXTT7=
EXTT8=
EXTT9=
EXTT10=
PLAYORDER=
